# Blender v2.78 (sub 0) OBJ File: 'squareWall.blend'
# www.blender.org
mtllib squareWall.mtl
o Cube.002
v 5.128065 20.518387 -5.158453
v 5.128065 20.518387 5.114590
v -5.144979 20.518387 5.114589
v -5.144977 20.518387 -5.158455
v 5.128067 30.791431 -5.158451
v 5.128062 30.791431 5.114593
v -5.144980 30.791431 5.114588
v -5.144978 30.791431 -5.158453
v 5.128065 10.239086 -5.158453
v 5.128065 10.239086 5.114590
v -5.144979 10.239086 5.114589
v -5.144977 10.239086 -5.158455
v 5.128067 20.512129 -5.158451
v 5.128062 20.512129 5.114593
v -5.144980 20.512129 5.114588
v -5.144978 20.512129 -5.158453
v 5.130800 -0.030409 -5.136521
v 5.130800 -0.030409 5.136522
v -5.142245 -0.030409 5.136521
v -5.142242 -0.030409 -5.136524
v 5.130802 10.242635 -5.136519
v 5.130796 10.242635 5.136525
v -5.142246 10.242635 5.136520
v -5.142244 10.242635 -5.136522
v 5.128065 20.518387 -5.158453
v 5.128065 20.518387 -5.158453
v 5.128065 20.518387 5.114590
v 5.128065 20.518387 5.114590
v -5.144977 20.518387 -5.158455
v -5.144977 20.518387 -5.158455
v 5.128067 30.791431 -5.158451
v 5.128067 30.791431 -5.158451
v -5.144979 20.518387 5.114589
v -5.144979 20.518387 5.114589
v 5.128062 30.791431 5.114593
v 5.128062 30.791431 5.114593
v -5.144980 30.791431 5.114588
v -5.144980 30.791431 5.114588
v -5.144978 30.791431 -5.158453
v -5.144978 30.791431 -5.158453
v 5.128065 10.239086 -5.158453
v 5.128065 10.239086 -5.158453
v 5.128065 10.239086 5.114590
v 5.128065 10.239086 5.114590
v -5.144977 10.239086 -5.158455
v -5.144977 10.239086 -5.158455
v 5.128067 20.512129 -5.158451
v 5.128067 20.512129 -5.158451
v -5.144979 10.239086 5.114589
v -5.144979 10.239086 5.114589
v 5.128062 20.512129 5.114593
v 5.128062 20.512129 5.114593
v -5.144980 20.512129 5.114588
v -5.144980 20.512129 5.114588
v -5.144978 20.512129 -5.158453
v -5.144978 20.512129 -5.158453
v 5.130800 -0.030409 -5.136521
v 5.130800 -0.030409 -5.136521
v 5.130800 -0.030409 5.136522
v 5.130800 -0.030409 5.136522
v -5.142242 -0.030409 -5.136524
v -5.142242 -0.030409 -5.136524
v 5.130802 10.242635 -5.136519
v 5.130802 10.242635 -5.136519
v -5.142245 -0.030409 5.136521
v -5.142245 -0.030409 5.136521
v 5.130796 10.242635 5.136525
v 5.130796 10.242635 5.136525
v -5.142246 10.242635 5.136520
v -5.142246 10.242635 5.136520
v -5.142244 10.242635 -5.136522
v -5.142244 10.242635 -5.136522
vt 0.8000 0.0000
vt 1.0000 0.2000
vt 0.8000 0.2000
vt 0.8000 0.2000
vt 0.6000 0.4000
vt 0.6000 0.2000
vt 0.7848 0.1864
vt 0.6000 0.0000
vt 0.7848 0.0017
vt 0.0000 0.0000
vt 0.2000 0.2000
vt 0.0000 0.2000
vt 0.2169 0.5983
vt 0.4000 0.7746
vt 0.2169 0.7729
vt 0.8034 0.1983
vt 0.9983 -0.0000
vt 1.0000 0.2034
vt 0.6000 0.6000
vt 0.8000 0.8000
vt 0.6000 0.8000
vt 0.4000 0.2000
vt 0.2000 0.4000
vt 0.2000 0.2000
vt 0.7882 0.5763
vt 0.6000 0.4000
vt 0.7882 0.3983
vt 0.4000 0.2000
vt 0.6000 0.4000
vt 0.4000 0.4000
vt 0.1983 0.8000
vt -0.0017 0.6000
vt 0.2000 0.6000
vt 0.0000 0.6000
vt 0.2000 0.8000
vt 0.0000 0.8000
vt 0.0000 0.8000
vt 0.2000 1.0000
vt 0.0000 1.0000
vt 0.2000 0.4000
vt 0.4000 0.6000
vt 0.2000 0.6000
vt 0.0000 0.1813
vt 0.1814 0.0034
vt -0.0000 0.0051
vt 0.1966 0.2068
vt -0.0034 -0.0000
vt 0.2000 0.0000
vt 0.9966 0.3983
vt 0.8000 0.5831
vt 0.8000 0.4000
vt 0.0000 0.4000
vt 0.2000 0.6000
vt 0.0000 0.6000
vt 1.0000 0.0000
vt 0.8000 0.4000
vt 0.5983 0.1848
vt 0.2000 0.0000
vt 0.4000 0.6000
vt 0.8000 0.0000
vt 0.8000 0.6000
vt 0.4000 0.4000
vt 0.5983 0.5729
vt 0.6000 0.2000
vt -0.0051 0.7983
vt 0.2000 0.6000
vt 0.2000 0.8000
vt 0.4000 0.4000
vt 0.1814 0.1814
vt -0.0000 0.2068
vt 0.9966 0.5847
vt 0.2000 0.4000
vn 0.0000 -1.0000 0.0000
vn 0.0000 1.0000 0.0000
vn 1.0000 0.0000 0.0000
vn 0.0000 0.0000 1.0000
vn -1.0000 0.0000 0.0000
vn 0.0000 0.0000 -1.0000
usemtl Material
s 1
f 25/1/1 33/2/1 29/3/1
f 32/4/2 38/5/2 36/6/2
f 31/7/3 28/8/3 26/9/3
f 6/10/4 34/11/4 2/12/4
f 7/13/5 30/14/5 3/15/5
f 5/16/6 4/17/6 8/18/6
f 41/19/1 49/20/1 45/21/1
f 48/22/2 54/23/2 52/24/2
f 47/25/3 44/26/3 42/27/3
f 14/28/4 50/29/4 10/30/4
f 15/31/5 46/32/5 11/33/5
f 9/34/6 16/35/6 13/36/6
f 57/37/1 65/38/1 61/39/1
f 64/40/2 70/41/2 68/42/2
f 63/43/3 60/44/3 58/45/3
f 22/46/4 66/47/4 18/48/4
f 19/49/5 71/50/5 62/51/5
f 17/52/6 24/53/6 21/54/6
f 25/1/1 27/55/1 33/2/1
f 32/4/2 40/56/2 38/5/2
f 31/7/3 35/57/3 28/8/3
f 6/10/4 37/58/4 34/11/4
f 7/13/5 39/59/5 30/14/5
f 5/16/6 1/60/6 4/17/6
f 41/19/1 43/61/1 49/20/1
f 48/22/2 56/62/2 54/23/2
f 47/25/3 51/63/3 44/26/3
f 14/28/4 53/64/4 50/29/4
f 15/31/5 55/65/5 46/32/5
f 9/34/6 12/66/6 16/35/6
f 57/37/1 59/67/1 65/38/1
f 64/40/2 72/68/2 70/41/2
f 63/43/3 67/69/3 60/44/3
f 22/46/4 69/70/4 66/47/4
f 19/49/5 23/71/5 71/50/5
f 17/52/6 20/72/6 24/53/6
