# Blender v2.78 (sub 0) OBJ File: 'StylishDesk.blend'
# www.blender.org
mtllib deskobj.mtl
o Cube_Cube.001
v -2.004526 2.736228 1.982270
v -2.004526 2.736228 -1.982249
v 1.992690 2.736228 -1.982249
v 1.992690 2.736228 1.982270
v -2.004526 2.776597 1.982270
v -2.004526 2.776597 -1.982249
v 1.992690 2.776597 -1.982249
v 1.992690 2.776597 1.982270
v 1.892690 2.999537 -1.982249
v 1.892690 2.959168 -1.982249
v 1.892690 2.999537 1.982270
v 1.892690 2.959168 1.982270
v -1.909526 2.959168 -1.982249
v -1.909526 2.999537 1.982270
v -1.909526 2.999537 -1.982249
v -1.909526 2.959168 1.982270
v -2.004526 2.999537 1.835232
v -2.004526 2.959168 1.835232
v 1.992690 2.999537 1.835232
v 1.992690 2.959168 1.835232
v 1.892690 2.959168 1.835232
v 1.892690 2.999537 1.835232
v -1.909526 2.999537 1.835232
v -1.909526 2.959168 1.835232
v -2.004526 2.999537 -1.842563
v 1.992690 2.959168 -1.842563
v -2.004526 2.959168 -1.842563
v 1.992690 2.999537 -1.842563
v 1.892690 2.959168 -1.842563
v 1.892690 2.999537 -1.842563
v -1.909526 2.999537 -1.842563
v -1.909526 2.959168 -1.842563
v -2.004526 0.001545 1.982270
v -2.004526 0.001545 -1.982249
v 1.992690 0.001545 -1.982249
v 1.992690 0.001545 1.982270
v 1.892690 0.001545 -1.982249
v 1.892690 0.001545 1.982270
v -1.909526 0.001545 -1.982249
v -1.909526 0.001545 1.982270
v -2.004526 0.001545 1.835232
v 1.992690 0.001545 1.835232
v 1.892690 0.001545 1.835232
v -1.909526 0.001545 1.835232
v 1.992690 0.001545 -1.842563
v -2.004526 0.001545 -1.842563
v 1.892690 0.001545 -1.842563
v -1.909526 0.001545 -1.842563
vt 0.1855 0.1446
vt 0.1767 0.0262
vt 0.1767 0.0000
vt 0.4769 0.1478
vt 0.4676 0.0293
vt 0.4676 0.0031
vt 0.4769 0.8585
vt 0.4862 0.9769
vt 0.4862 1.0031
vt 0.3711 0.1446
vt 0.3622 0.0262
vt 0.3622 0.0000
vt 0.2833 0.0031
vt 0.2745 0.9769
vt 0.2745 0.0031
vt 0.3799 0.0000
vt 0.3711 0.0000
vt 0.3799 0.0000
vt 0.3799 0.0262
vt 0.1855 0.1446
vt 0.1948 0.0262
vt 0.1855 0.1708
vt 0.4865 0.0555
vt 0.3191 0.0543
vt 0.4865 0.0543
vt 0.4769 0.0031
vt 0.4676 0.0031
vt 0.1948 0.0000
vt 0.4953 0.0044
vt 0.4865 0.0281
vt 0.4865 0.0044
vt 0.3711 0.1446
vt 0.3711 0.1708
vt 0.2653 0.0031
vt 0.2560 0.9769
vt 0.2560 0.0031
vt 0.0000 0.1446
vt 0.0093 0.0262
vt 0.0000 0.1708
vt 0.2286 0.9769
vt 0.2286 1.0031
vt 0.2467 0.9769
vt 0.2560 0.0031
vt 0.2560 0.9769
vt 0.0000 0.0000
vt 0.0093 0.0000
vt 0.4865 0.0306
vt 0.3191 0.0293
vt 0.4865 0.0293
vt 0.4769 1.0031
vt 0.3191 0.0044
vt 0.3098 0.0281
vt 0.3098 0.0044
vt 0.3799 1.0000
vt 0.3711 1.0000
vt 0.3098 0.0306
vt 0.3191 0.0306
vt 0.3191 0.0293
vt 0.3191 0.0281
vt 0.4865 0.0031
vt 0.3191 0.0031
vt 0.4953 0.0543
vt 0.4953 0.0306
vt 0.2374 0.8585
vt 0.2374 0.8323
vt 0.3186 0.0568
vt 0.3098 0.0581
vt 0.3098 0.0568
vt 0.3098 0.0594
vt 0.3186 0.0607
vt 0.3098 0.0607
vt 0.3098 0.0555
vt 0.3191 0.0568
vt 0.3098 0.0568
vt 0.3098 0.0581
vt 0.3186 0.0594
vt 0.3098 0.0594
vt 0.1948 1.0000
vt 0.1855 1.0000
vt 0.4769 0.8323
vt 0.4862 0.0031
vt 0.2653 0.9769
vt 0.2745 0.0031
vt 0.2745 0.9769
vt 0.0093 1.0000
vt 0.0000 1.0000
vt 0.3010 0.0031
vt 0.2922 0.9769
vt 0.2922 0.0031
vt 0.3711 0.1708
vt 0.3622 1.0000
vt 0.3010 0.9769
vt 0.3098 0.0031
vt 0.3098 0.9769
vt 0.2833 0.9769
vt 0.2922 0.0031
vt 0.2922 0.9769
vt 0.4769 0.1740
vt 0.4676 1.0031
vt 0.2467 0.0031
vt 0.2374 0.9769
vt 0.2374 0.0031
vt 0.2286 0.0031
vt 0.2374 0.0031
vt 0.1855 0.1708
vt 0.1767 1.0000
vt 0.2833 0.9769
vt 0.3191 0.0555
vt 0.4953 0.0281
vt 0.2653 0.9769
vt 0.2467 0.0031
vt 0.0093 0.0000
vt 0.4862 1.0031
vt 0.3098 0.0543
vt 0.4865 0.0293
vt 0.3186 0.0581
vt 0.3186 0.0594
vt 0.3191 0.0555
vt 0.3186 0.0581
vt 0.4769 0.0031
vt 0.2653 0.0031
vt 0.3010 0.9769
vt 0.3711 1.0000
vt 0.3010 0.0031
vt 0.2833 0.0031
vt 0.4769 1.0031
vt 0.2467 0.9769
vt 0.1855 1.0000
vt 0.5863 0.9825
vt 0.7230 0.0076
vt 0.7239 0.9824
vt 0.9076 0.9822
vt 0.7691 0.0076
vt 0.9067 0.0075
vt 0.5854 0.0077
vt 0.7700 0.9823
vn -1.0000 0.0000 0.0000
vn 0.0000 0.0000 -1.0000
vn 1.0000 0.0000 0.0000
vn 0.0000 0.0000 1.0000
vn 0.0000 1.0000 0.0000
vn 0.0000 -1.0000 0.0000
vn -0.7908 0.3370 0.5109
vn 0.7753 0.3478 0.5273
vn -0.7799 0.3323 -0.5304
vn 0.7639 0.3426 -0.5469
usemtl Material
s off
f 6/1/1 27/2/1 25/3/1
f 7/4/2 10/5/2 9/6/2
f 8/7/3 20/8/3 19/9/3
f 5/10/4 16/11/4 14/12/4
f 27/13/4 48/14/4 32/15/4
f 15/16/5 25/17/5 31/18/5
f 9/6/2 13/19/2 15/16/2
f 8/20/4 12/21/4 4/22/4
f 13/23/6 29/24/6 32/25/6
f 28/26/5 9/6/5 30/27/5
f 14/12/4 12/21/4 11/28/4
f 9/29/5 31/30/5 30/31/5
f 6/32/2 13/19/2 2/33/2
f 20/34/2 43/35/2 21/36/2
f 5/37/1 18/38/1 1/39/1
f 19/9/3 26/40/3 28/41/3
f 21/42/1 38/43/1 12/44/1
f 14/45/7 17/46/7 5/37/7
f 24/47/6 12/48/6 16/49/6
f 19/9/8 11/50/8 8/7/8
f 22/51/5 14/52/5 11/53/5
f 2/33/2 39/54/2 34/55/2
f 25/3/1 18/38/1 17/46/1
f 29/24/6 20/56/6 21/57/6
f 31/30/5 17/58/5 23/59/5
f 28/60/5 22/51/5 19/61/5
f 27/62/6 24/47/6 18/63/6
f 7/64/3 26/40/3 3/65/3
f 37/66/6 45/67/6 47/68/6
f 34/69/6 48/70/6 46/71/6
f 43/72/6 36/73/6 38/74/6
f 41/75/6 40/76/6 33/77/6
f 4/22/4 38/78/4 36/79/4
f 4/80/3 42/81/3 20/8/3
f 16/82/3 44/83/3 24/84/3
f 1/39/1 41/85/1 33/86/1
f 24/87/2 41/88/2 18/89/2
f 1/90/4 40/91/4 16/11/4
f 32/92/3 39/93/3 13/94/3
f 10/95/1 47/96/1 29/97/1
f 3/98/2 37/99/2 10/5/2
f 29/100/4 45/101/4 26/102/4
f 3/65/3 45/103/3 35/104/3
f 2/105/1 46/106/1 27/2/1
f 6/1/1 2/105/1 27/2/1
f 7/4/2 3/98/2 10/5/2
f 8/7/3 4/80/3 20/8/3
f 5/10/4 1/90/4 16/11/4
f 27/13/4 46/107/4 48/14/4
f 15/16/9 6/32/9 25/17/9
f 9/6/2 10/5/2 13/19/2
f 8/20/4 11/28/4 12/21/4
f 13/23/6 10/108/6 29/24/6
f 28/26/10 7/4/10 9/6/10
f 14/12/4 16/11/4 12/21/4
f 9/29/5 15/109/5 31/30/5
f 6/32/2 15/16/2 13/19/2
f 20/34/2 42/110/2 43/35/2
f 5/37/1 17/46/1 18/38/1
f 19/9/3 20/8/3 26/40/3
f 21/42/1 43/111/1 38/43/1
f 14/45/5 23/112/5 17/46/5
f 24/47/6 21/57/6 12/48/6
f 19/9/5 22/113/5 11/50/5
f 22/51/5 23/59/5 14/52/5
f 2/33/2 13/19/2 39/54/2
f 25/3/1 27/2/1 18/38/1
f 29/24/6 26/114/6 20/56/6
f 31/30/5 25/115/5 17/58/5
f 28/60/5 30/31/5 22/51/5
f 27/62/6 32/25/6 24/47/6
f 7/64/3 28/41/3 26/40/3
f 37/66/6 35/116/6 45/67/6
f 34/69/6 39/117/6 48/70/6
f 43/72/6 42/118/6 36/73/6
f 41/75/6 44/119/6 40/76/6
f 4/22/4 12/21/4 38/78/4
f 4/80/3 36/120/3 42/81/3
f 16/82/3 40/121/3 44/83/3
f 1/39/1 18/38/1 41/85/1
f 24/87/2 44/122/2 41/88/2
f 1/90/4 33/123/4 40/91/4
f 32/92/3 48/124/3 39/93/3
f 10/95/1 37/125/1 47/96/1
f 3/98/2 35/126/2 37/99/2
f 29/100/4 47/127/4 45/101/4
f 3/65/3 26/40/3 45/103/3
f 2/105/1 34/128/1 46/106/1
usemtl Material.003
f 32/129/6 21/130/6 24/131/6
f 30/132/5 23/133/5 22/134/5
f 32/129/6 29/135/6 21/130/6
f 30/132/5 31/136/5 23/133/5
